<mxfile host="app.diagrams.net" modified="2023-04-14T02:46:13.982Z" agent="Mozilla/5.0 (Macintosh; Intel Mac OS X 10_15_7) AppleWebKit/537.36 (KHTML, like Gecko) Chrome/112.0.0.0 Safari/537.36" version="21.1.4" etag="ErluBLceu5cWYi2ChVwH" type="github">
  <diagram name="第 1 页" id="HRcxcrK3ZkO5NUu4co4i">
    <mxGraphModel>
      <root>
        <mxCell id="0" />
        <mxCell id="1" parent="0" />
      </root>
    </mxGraphModel>
  </diagram>
</mxfile>
